<svg width="32" height="32" viewBox="0 0 32 32" fill="none" xmlns="http://www.w3.org/2000/svg">
<rect width="32" height="32" rx="16" fill="#292D32"/>
<path d="M19.8997 23.0075H22.0677L12.0882 9.03975H9.92014L19.8997 23.0075Z" fill="#F5F5F5"/>
<path fill-rule="evenodd" clip-rule="evenodd" d="M16 32C7.16345 32 0 24.8365 0 16C0 7.16345 7.16345 0 16 0C24.8365 0 32 7.16345 32 16C32 24.8365 24.8365 32 16 32ZM23.4785 8L17.5218 14.7749L24 24H19.2356L14.8732 17.7878L9.41156 24H8L14.2466 16.8955L8 8H12.7644L16.8952 13.8826L22.0671 8H23.4785Z" fill="#F5F5F5"/>
</svg>
