<svg width="128" height="210" viewBox="0 0 128 210" fill="none" xmlns="http://www.w3.org/2000/svg">
<path fill-rule="evenodd" clip-rule="evenodd" d="M46.5126 71.2081C48.6671 93.5157 74.001 104.774 95.7737 99.6006C119.179 94.0395 129.036 69.8761 126.841 45.8822C124.678 22.2346 87.6953 0 87.6953 0C87.6953 0 100.408 17.7678 94.8216 27.4271C91.7277 32.7766 86.5215 32.6399 80.9124 32.4927C76.3936 32.3741 71.6132 32.2486 67.4651 34.9794C53.8478 43.9441 44.9506 55.0351 46.5126 71.2081ZM75.9285 86.9287C63.8134 82.9992 54.95 69.9172 60.6631 58.2888C64.8051 49.8583 72.4749 47.0425 81.7875 46.6782C84.6243 46.5672 86.9022 48.0512 89.0555 49.454C91.7283 51.1953 94.2092 52.8114 97.3284 51.0971C102.961 48.0014 102.183 35.468 102.183 35.468C102.183 35.468 113.365 57.422 107.251 69.7129C101.046 82.1838 88.9521 91.1529 75.9285 86.9287ZM77.1395 55.1363C71.8005 58.6898 72.2696 66.575 76.4137 71.3469C80.8684 76.4767 88.2421 75.6907 94.0007 71.8995C99.6762 68.1631 100.453 55.8689 100.453 55.8689C100.453 55.8689 97.635 61.4621 94.4726 61.3627C92.7212 61.3076 92.0764 59.9811 91.3816 58.552C90.8219 57.4005 90.2299 56.1825 89.0007 55.509C84.9654 53.298 81.0104 52.5602 77.1395 55.1363ZM76.3 154.434L0.859863 210L11.3442 116.996L30.8865 83.2057L38.3651 107.713C40.2398 113.856 50.0078 109.728 56.7637 105.984C60.5329 103.895 63.3644 101.925 63.3644 101.925C63.3644 101.925 63.1043 105.301 63.4557 109.609C63.9452 115.611 65.6219 123.423 70.8431 126.431L95.8424 120.645L76.3 154.434ZM67.2808 152.996L15.5527 191.097L23.3638 185.343L10.9339 178.787L9.91272 187.846L17.1017 124.074L67.2808 152.996ZM18.6151 117.426L29.0233 99.43L32.1328 109.62C32.9429 112.274 34.6126 114.503 37.0793 115.888C39.365 117.171 41.7874 117.425 43.7406 117.351C47.5233 117.208 51.5029 115.747 54.624 114.344C55.5269 113.939 56.4162 113.511 57.2776 113.075L57.2851 113.13C57.7053 116.206 58.4736 119.761 59.9294 123.057C61.3766 126.335 63.7258 129.849 67.5812 132.072L72.3048 132.774L82.6992 130.368L72.2911 148.363L18.6151 117.426Z" fill="white"/>
</svg>
