<svg width="148" height="210" viewBox="0 0 148 210" fill="none" xmlns="http://www.w3.org/2000/svg">
<path d="M49.3894 13.5208C49.3945 13.2036 49.4717 12.8917 49.615 12.6085C49.7583 12.3252 49.9642 12.078 50.2171 11.8854C50.7435 11.4302 51.4184 11.1817 52.1153 11.1866H131.204C131.843 11.1892 132.465 11.3931 132.981 11.7689C133.26 11.9721 133.49 12.2348 133.654 12.5379C133.818 12.841 133.912 13.1767 133.93 13.5208V22.8623C133.95 23.5891 133.696 24.2971 133.219 24.847C132.965 25.1235 132.652 25.3401 132.304 25.4809C131.955 25.622 131.579 25.684 131.204 25.6623H112.459L112.396 106.276C112.35 106.933 112.077 107.552 111.622 108.028C111.427 108.306 111.171 108.535 110.873 108.698C110.575 108.86 110.243 108.952 109.903 108.965H100.304C99.6635 108.884 99.0747 108.571 98.6495 108.086C98.3666 107.872 98.1336 107.599 97.9656 107.287C97.7976 106.975 97.6987 106.63 97.6759 106.276V25.6817H52.1153C51.4083 25.6831 50.7281 25.4118 50.2171 24.9246C49.9401 24.6634 49.7229 24.3455 49.58 23.993C49.4374 23.6405 49.3723 23.2615 49.3894 22.8816V13.5208Z" fill="white"/>
<path d="M119.235 34.8098C119.223 34.2103 119.435 33.6277 119.829 33.1745C120.053 32.932 120.329 32.7434 120.637 32.6223C120.944 32.5013 121.276 32.4512 121.605 32.4757H131.34C131.967 32.4996 132.57 32.7242 133.059 33.1162C133.338 33.3015 133.565 33.5537 133.721 33.8496C133.877 34.1457 133.955 34.4757 133.949 34.8098V85.2009C133.949 86.757 133.08 87.535 131.34 87.535H121.605C120.025 87.535 119.235 86.757 119.235 85.2009V34.8098Z" fill="white"/>
<path d="M0.917514 118.617C0.913965 117.894 1.19336 117.197 1.69635 116.676C1.98066 116.389 2.32306 116.165 2.70076 116.021C3.07845 115.876 3.48279 115.813 3.88676 115.836H15.6225C17.3213 115.836 18.2608 116.768 18.4555 118.622V192.733H73.43C74.1646 192.726 74.874 193 75.4112 193.5C75.7009 193.777 75.9268 194.114 76.0729 194.487C76.2193 194.86 76.2825 195.26 76.258 195.659V207.214C76.258 208.89 75.3155 209.819 73.43 210H3.75046C1.86183 210 0.917514 209.071 0.917514 207.214V118.617Z" fill="white"/>
<path d="M26.7695 118.69C26.7893 117.988 27.0664 117.318 27.5484 116.807C27.778 116.523 28.0687 116.295 28.3991 116.138C28.7294 115.982 29.0907 115.902 29.4563 115.904H41.3332C42.0728 115.936 42.7761 116.233 43.3145 116.739C43.6124 116.969 43.8545 117.263 44.0231 117.599C44.1916 117.935 44.2821 118.304 44.2879 118.68V141.517H58.7106V118.646C58.7122 118.282 58.7886 117.921 58.935 117.588C59.0816 117.254 59.2951 116.953 59.5625 116.705C59.8405 116.429 60.1722 116.212 60.537 116.067C60.9018 115.923 61.2924 115.854 61.6848 115.865H72.9922C73.7874 115.88 74.5568 116.149 75.1874 116.632C75.5189 116.855 75.7892 117.157 75.9737 117.51C76.1581 117.864 76.251 118.257 76.2438 118.656V181.64C76.2438 183.5 75.1598 184.428 72.9922 184.425H61.7141C60.9718 184.431 60.2498 184.186 59.6647 183.731C59.3536 183.483 59.1073 183.162 58.9472 182.798C58.787 182.434 58.7174 182.036 58.7448 181.64V158.803H44.3025V181.64C44.3153 182.024 44.2391 182.406 44.0796 182.756C43.9198 183.107 43.6814 183.415 43.3826 183.659C42.7238 184.186 41.8955 184.459 41.051 184.425H29.4563C27.6651 184.425 26.7695 183.497 26.7695 181.64V118.69Z" fill="white"/>
<path d="M132.869 116.632C132.24 116.149 131.472 115.88 130.678 115.865H87.1279C86.7619 115.864 86.4001 115.945 86.0699 116.102C85.7394 116.259 85.4489 116.488 85.2198 116.773C84.7378 117.284 84.4607 117.954 84.4409 118.656V207.186C84.4409 209.043 85.3365 209.971 87.1279 209.971H130.678C132.843 209.971 133.927 209.043 133.93 207.186V118.656C133.937 118.257 133.843 117.863 133.658 117.509C133.472 117.156 133.201 116.854 132.869 116.632ZM116.368 192.699H102.003V133.141H116.368V192.699Z" fill="white"/>
<path d="M89.8976 33.1162C89.3705 32.7123 88.7273 32.4879 88.0625 32.4757H51.5555C51.2485 32.4729 50.9449 32.5396 50.6675 32.6707C50.3902 32.8019 50.1462 32.9939 49.9541 33.2328C49.5541 33.6631 49.3241 34.2235 49.3066 34.8099V106.631C49.3066 108.188 50.0515 108.965 51.5555 108.965H61.2908C61.9962 108.993 62.6877 108.765 63.2379 108.324C63.4882 108.12 63.6879 107.861 63.8214 107.567C63.955 107.273 64.0184 106.953 64.0069 106.631V87.5544H76.0932V106.631C76.0699 106.963 76.1277 107.296 76.2616 107.601C76.3956 107.906 76.6017 108.174 76.8621 108.383C77.3532 108.763 77.9583 108.969 78.5805 108.965H88.0625C89.8797 108.965 90.7884 108.187 90.7884 106.631V34.8099C90.794 34.4757 90.7155 34.1457 90.5599 33.8496C90.4042 33.5538 90.1765 33.3015 89.8976 33.1162ZM63.9826 73.0545V44.6125H76.0736V73.0545H63.9826Z" fill="white"/>
<path d="M42.3947 62.747C42.4256 62.397 42.3719 62.0448 42.2381 61.7197C42.1042 61.3946 41.8942 61.1063 41.6256 60.8788C41.0968 60.4841 40.4508 60.2774 39.7905 60.2916H24.2628C23.9019 60.2663 23.54 60.3217 23.2031 60.4535C22.8663 60.5852 22.5632 60.7903 22.3158 61.0534C21.8954 61.5179 21.6629 62.1215 21.6635 62.747V72.3071C21.6635 73.9375 22.4132 74.7578 23.9124 74.7578H27.7042V94.4501H15.6375V25.6623H27.6752V45.7285C27.6564 46.0691 27.7166 46.4096 27.8506 46.7234C27.9848 47.0371 28.1895 47.3161 28.4491 47.5385C28.9251 47.9525 29.5356 48.18 30.1672 48.1792H39.9025C40.2463 48.1981 40.5904 48.1401 40.9087 48.0091C41.2272 47.878 41.5121 47.6775 41.7423 47.4222C42.1576 46.9548 42.3877 46.3528 42.3898 45.7285V13.5207C42.396 13.1871 42.3182 12.8572 42.1635 12.5613C42.0087 12.2655 41.7818 12.013 41.5039 11.8271C40.9752 11.4226 40.3303 11.1981 39.6639 11.1866H3.15702C2.85004 11.1838 2.54642 11.2505 2.26903 11.3816C1.99165 11.5128 1.74769 11.7049 1.55556 11.9436C1.15382 12.3733 0.922086 12.9337 0.90332 13.5207V106.611C0.90332 108.167 1.65456 108.945 3.15702 108.945H39.6639C41.4812 108.945 42.3898 108.167 42.3898 106.611L42.3947 62.747Z" fill="white"/>
<path d="M119.235 96.6825C119.223 96.083 119.435 95.5003 119.829 95.0472C120.053 94.8042 120.329 94.6146 120.636 94.4929C120.944 94.371 121.275 94.32 121.605 94.3434H131.34C131.968 94.3708 132.569 94.5969 133.059 94.9889C133.338 95.1738 133.566 95.426 133.722 95.7221C133.877 96.0179 133.956 96.3484 133.949 96.6825V106.611C133.949 108.167 133.08 108.945 131.34 108.945H121.605C120.025 108.945 119.235 108.167 119.235 106.611V96.6825Z" fill="white"/>
<path d="M147.096 5.69332C147.101 6.82497 146.769 7.93257 146.142 8.87584C145.515 9.8191 144.621 10.5556 143.574 10.992C142.526 11.4284 141.373 11.5451 140.259 11.3272C139.145 11.1094 138.121 10.5669 137.316 9.76837C136.512 8.96987 135.964 7.95133 135.74 6.84177C135.517 5.73222 135.629 4.58156 136.063 3.53558C136.496 2.4896 137.231 1.59537 138.174 0.966145C139.118 0.336922 140.227 0.00103813 141.362 0.00102793C142.117 -0.0133813 142.867 0.123827 143.568 0.404481C144.269 0.685136 144.905 1.1035 145.44 1.63464C145.976 2.16579 146.398 2.79884 146.682 3.49614C146.967 4.19341 147.108 4.94065 147.096 5.69332ZM146.065 5.69332C146.066 4.76595 145.79 3.85915 145.274 3.08762C144.758 2.31608 144.024 1.71447 143.165 1.35892C142.306 1.00337 141.36 0.909843 140.448 1.09017C139.536 1.2705 138.697 1.71659 138.039 2.37198C137.381 3.0274 136.933 3.86267 136.751 4.77213C136.569 5.68161 136.662 6.6244 137.018 7.48125C137.373 8.33813 137.976 9.07054 138.75 9.58586C139.523 10.1012 140.432 10.3762 141.362 10.3762C141.983 10.3894 142.6 10.2774 143.176 10.0468C143.752 9.81618 144.276 9.4718 144.715 9.03435C145.154 8.59691 145.5 8.07544 145.732 7.50129C145.964 6.92713 146.077 6.31215 146.065 5.69332ZM141.893 6.24166L143.928 8.87187H142.73L140.861 6.26593H140.287V8.87187H139.279V2.94179C139.279 2.87467 139.293 2.80823 139.32 2.74667C139.346 2.68511 139.386 2.62977 139.435 2.58417C139.484 2.53856 139.543 2.50367 139.607 2.4817C139.67 2.45973 139.738 2.45114 139.805 2.45652H141.435C142.852 2.45652 143.714 3.16987 143.714 4.36851C143.714 5.38273 143.003 6.07182 141.893 6.24166ZM140.287 5.30995H141.387C142.205 5.30995 142.633 4.95084 142.633 4.3394C142.633 3.66972 142.273 3.36884 141.411 3.36884H140.287V5.30995Z" fill="white"/>
</svg>
