<svg width="36" height="36" viewBox="0 0 36 36" fill="none" xmlns="http://www.w3.org/2000/svg">
<path d="M3.29987 14.6402H6.65987V17.9102H3.29987V14.6402ZM7.42487 14.6402H10.7999V17.9102H7.42487V14.6402ZM7.42487 10.4402H10.7999V13.7102H7.42487V10.4402ZM11.5649 14.6402H14.9249V17.9102H11.5649V14.6402ZM11.5649 10.4402H14.9249V13.7102H11.5649V10.4402ZM15.6899 14.6402H19.0649V17.9102H15.6899V14.6402ZM15.6899 10.4402H19.0649V13.7102H15.6899V10.4402ZM19.8299 14.6402H23.1899V17.9102H19.8299V14.6402ZM15.6899 6.24023H19.0649V9.51023H15.6899V6.24023ZM7.99487 22.6352C8.51987 22.6352 8.93987 23.0402 8.93987 23.5502C8.93987 24.0452 8.51987 24.4652 7.99487 24.4652C7.49987 24.4652 7.06487 24.0452 7.06487 23.5502C7.06487 23.0402 7.49987 22.6352 7.99487 22.6352ZM34.0349 16.3352L34.4999 16.5902L34.2599 17.0552C33.2999 18.8702 31.3049 19.4252 29.3549 19.3352C26.4299 26.4002 20.0549 29.7602 12.3449 29.7602C8.35487 29.7602 4.69487 28.3052 2.60987 24.8702L2.57987 24.8102L2.24987 24.2102C1.57487 22.6952 1.33487 21.0452 1.49987 19.3802L1.54487 18.8852H23.6999C24.4949 18.8852 25.3049 18.7502 26.0399 18.5102L27.1799 18.0002C26.7149 17.4002 26.4599 16.6352 26.3999 15.8852C26.2949 14.8652 26.5049 13.5002 27.2249 12.7502L27.5849 12.3302L28.0049 12.6602C29.0699 13.5002 29.9549 14.6552 30.1199 15.9752C31.3949 15.6152 32.9099 15.6902 34.0349 16.3352ZM8.00987 25.2752C8.99987 25.2752 9.74987 24.4952 9.74987 23.5502C9.74987 22.5902 8.99987 21.8102 7.99487 21.8102C7.01987 21.8102 6.22487 22.5902 6.22487 23.5502C6.22487 24.5102 7.01987 25.2752 8.00987 25.2752Z" fill="#1E9CEF"/>
</svg>
