<svg width="36" height="36" viewBox="0 0 36 36" fill="none" xmlns="http://www.w3.org/2000/svg">
<path d="M33.1153 16.5508L19.3498 2.79204C19.1616 2.60292 18.9379 2.45284 18.6916 2.35044C18.4452 2.24803 18.1811 2.19531 17.9143 2.19531C17.6475 2.19531 17.3833 2.24803 17.137 2.35044C16.8906 2.45284 16.667 2.60292 16.4788 2.79204L13.6213 5.64954L17.2528 9.27429C17.6801 9.12881 18.1396 9.10625 18.5791 9.20918C19.0185 9.31212 19.4202 9.5364 19.7385 9.8565C20.0567 10.1766 20.2786 10.5796 20.3789 11.0197C20.4793 11.4597 20.454 11.9191 20.306 12.3455L23.798 15.8398C24.3196 15.6608 24.8868 15.666 25.4051 15.8544C25.9234 16.0429 26.3614 16.4032 26.6462 16.8754C26.9311 17.3477 27.0455 17.9032 26.9704 18.4495C26.8954 18.9959 26.6353 19.5 26.2337 19.8779C25.8321 20.2558 25.3131 20.4846 24.7632 20.5263C24.2133 20.568 23.6657 20.42 23.2117 20.107C22.7577 19.7939 22.4247 19.3348 22.2681 18.806C22.1116 18.2772 22.1409 17.7108 22.3513 17.201L19.0955 13.9498V22.5223C19.587 22.7699 19.9789 23.1784 20.2061 23.6796C20.4333 24.1809 20.482 24.7449 20.3442 25.2777C20.2064 25.8105 19.8903 26.2801 19.4486 26.6084C19.0069 26.9367 18.4661 27.1039 17.9162 27.0822C17.3663 27.0605 16.8403 26.8512 16.4259 26.4891C16.0114 26.127 15.7333 25.634 15.6379 25.092C15.5425 24.55 15.6355 23.9916 15.9015 23.5098C16.1674 23.028 16.5903 22.6517 17.0998 22.4435V13.7923C16.8052 13.6713 16.5375 13.4932 16.312 13.2684C16.0865 13.0435 15.9076 12.7763 15.7857 12.4821C15.6638 12.1879 15.6013 11.8726 15.6017 11.5541C15.6021 11.2357 15.6654 10.9204 15.788 10.6265L12.2263 7.05354L2.79204 16.4855C2.60292 16.6737 2.45284 16.8974 2.35044 17.1437C2.24803 17.3901 2.19531 17.6543 2.19531 17.921C2.19531 18.1878 2.24803 18.452 2.35044 18.6983C2.45284 18.9447 2.60292 19.1684 2.79204 19.3565L16.5508 33.1153C16.739 33.3044 16.9626 33.4545 17.209 33.5569C17.4553 33.6593 17.7195 33.712 17.9863 33.712C18.2531 33.712 18.5172 33.6593 18.7636 33.5569C19.0099 33.4545 19.2336 33.3044 19.4218 33.1153L33.1153 19.4218C33.3044 19.2336 33.4545 19.0099 33.5569 18.7636C33.6593 18.5172 33.712 18.2531 33.712 17.9863C33.712 17.7195 33.6593 17.4553 33.5569 17.209C33.4545 16.9626 33.3044 16.739 33.1153 16.5508Z" fill="#D52A29"/>
</svg>
