<svg width="36" height="36" viewBox="0 0 36 36" fill="none" xmlns="http://www.w3.org/2000/svg">
<g clip-path="url(#clip0_153_2643)">
<path d="M16.476 20.754C16.2775 20.754 16.0871 20.6752 15.9465 20.535L14.829 19.4205C14.7573 19.3514 14.7 19.2687 14.6606 19.1773C14.6212 19.0858 14.6003 18.9875 14.5993 18.8879C14.5983 18.7883 14.6172 18.6895 14.6548 18.5973C14.6923 18.5051 14.7479 18.4213 14.8182 18.3507C14.8885 18.2802 14.9722 18.2244 15.0643 18.1866C15.1564 18.1487 15.2552 18.1296 15.3547 18.1303C15.4543 18.1311 15.5528 18.1516 15.6443 18.1908C15.7359 18.23 15.8187 18.287 15.888 18.3585L16.476 18.945L18.2475 17.175C18.3881 17.0342 18.5789 16.955 18.778 16.9548C18.977 16.9547 19.1679 17.0336 19.3088 17.1743C19.4496 17.3149 19.5288 17.5057 19.5289 17.7047C19.5291 17.9037 19.4501 18.0947 19.3095 18.2355L17.007 20.535C16.8657 20.675 16.6749 20.7537 16.476 20.754ZM30.5055 20.5335L32.8065 18.2355C32.9431 18.094 33.0187 17.9046 33.017 17.7079C33.0153 17.5113 32.9364 17.3232 32.7974 17.1841C32.6583 17.0451 32.4702 16.9662 32.2736 16.9645C32.0769 16.9628 31.8875 17.0384 31.746 17.175L29.9745 18.945L29.3865 18.3585C29.3172 18.287 29.2344 18.23 29.1428 18.1908C29.0513 18.1516 28.9528 18.1311 28.8532 18.1303C28.7537 18.1296 28.6549 18.1487 28.5628 18.1866C28.4707 18.2244 28.387 18.2802 28.3167 18.3507C28.2464 18.4213 28.1908 18.5051 28.1533 18.5973C28.1157 18.6895 28.0968 18.7883 28.0978 18.8879C28.0988 18.9875 28.1197 19.0858 28.1591 19.1773C28.1985 19.2687 28.2558 19.3514 28.3275 19.4205L29.4465 20.535C29.5159 20.6048 29.5985 20.6602 29.6894 20.698C29.7803 20.7357 29.8779 20.7551 29.9763 20.755C30.0748 20.7548 30.1722 20.7352 30.2631 20.6972C30.3539 20.6592 30.4363 20.6035 30.5055 20.5335ZM6.7905 11.178L10.626 8.8005C10.8425 8.66651 11.0214 8.47959 11.1458 8.25736C11.2701 8.03513 11.3358 7.7849 11.3367 7.53025C11.3376 7.2756 11.2737 7.02491 11.1509 6.8018C11.0281 6.5787 10.8506 6.39052 10.635 6.255L6.7995 3.84C6.57258 3.69705 6.31148 3.61756 6.0434 3.6098C5.77532 3.60204 5.51006 3.6663 5.27525 3.79588C5.04044 3.92546 4.84466 4.11563 4.70832 4.34658C4.57197 4.57753 4.50003 4.84081 4.5 5.109V9.903C4.50044 10.1701 4.57215 10.4323 4.70771 10.6625C4.84328 10.8927 5.0378 11.0825 5.27121 11.2124C5.50462 11.3424 5.76847 11.4077 6.03554 11.4016C6.3026 11.3956 6.56322 11.3184 6.7905 11.178ZM9.8355 7.524L6 9.903V5.109L9.8355 7.524ZM36 18.75C36 21.645 33.645 24 30.75 24C29.4889 23.9976 28.2707 23.5417 27.3178 22.7155C26.365 21.8894 25.7411 20.7481 25.56 19.5H22.44C22.2589 20.7481 21.635 21.8894 20.6822 22.7155C19.7293 23.5417 18.5111 23.9976 17.25 24C15.9888 23.9979 14.7704 23.5421 13.8175 22.7159C12.8646 21.8897 12.2408 20.7482 12.06 19.5H11.223C9.765 19.5 8.448 18.9015 7.5 17.937V25.5C7.5 27.981 9.519 30 12 30H12.06C12.426 27.4605 14.61 25.5 17.25 25.5C20.145 25.5 22.5 27.855 22.5 30.75C22.5 33.645 20.145 36 17.25 36C15.9888 35.9979 14.7704 35.5421 13.8175 34.7159C12.8646 33.8897 12.2408 32.7482 12.06 31.5H12C8.691 31.5 6 28.809 6 25.5V14.8485C4.30724 14.5007 2.78617 13.5798 1.69321 12.2412C0.600254 10.9026 0.00224573 9.22812 0 7.5C0 3.3645 3.3645 0 7.5 0C11.6355 0 15 3.3645 15 7.5C14.9973 9.4756 14.2161 11.3705 12.8256 12.7739C11.4351 14.1773 9.54749 14.9761 7.572 14.997C7.73873 15.8429 8.19387 16.6047 8.85972 17.1523C9.52557 17.7 10.3609 17.9996 11.223 18H12.06C12.426 15.4605 14.61 13.5 17.25 13.5C18.5112 13.5021 19.7296 13.9579 20.6825 14.7841C21.6354 15.6103 22.2592 16.7518 22.44 18H25.56C25.7411 16.7519 26.365 15.6106 27.3178 14.7845C28.2707 13.9583 29.4889 13.5024 30.75 13.5C33.645 13.5 36 15.855 36 18.75ZM13.5 30.75C13.5 32.817 15.183 34.5 17.25 34.5C19.317 34.5 21 32.817 21 30.75C21 28.683 19.317 27 17.25 27C15.183 27 13.5 28.683 13.5 30.75ZM7.5 13.5C10.809 13.5 13.5 10.809 13.5 7.5C13.5 4.191 10.809 1.5 7.5 1.5C4.191 1.5 1.5 4.191 1.5 7.5C1.5 10.809 4.191 13.5 7.5 13.5ZM21 18.75C21 16.683 19.317 15 17.25 15C15.183 15 13.5 16.683 13.5 18.75C13.5 20.817 15.183 22.5 17.25 22.5C19.317 22.5 21 20.817 21 18.75ZM34.5 18.75C34.5 16.683 32.817 15 30.75 15C28.683 15 27 16.683 27 18.75C27 20.817 28.683 22.5 30.75 22.5C32.817 22.5 34.5 20.817 34.5 18.75ZM15 30.75C15 30.9489 15.079 31.1397 15.2197 31.2803C15.3603 31.421 15.5511 31.5 15.75 31.5C15.9489 31.5 16.1397 31.421 16.2803 31.2803C16.421 31.1397 16.5 30.9489 16.5 30.75C16.5 30.5511 16.421 30.3603 16.2803 30.2197C16.1397 30.079 15.9489 30 15.75 30C15.5511 30 15.3603 30.079 15.2197 30.2197C15.079 30.3603 15 30.5511 15 30.75ZM18 30.75C18 30.9489 18.079 31.1397 18.2197 31.2803C18.3603 31.421 18.5511 31.5 18.75 31.5C18.9489 31.5 19.1397 31.421 19.2803 31.2803C19.421 31.1397 19.5 30.9489 19.5 30.75C19.5 30.5511 19.421 30.3603 19.2803 30.2197C19.1397 30.079 18.9489 30 18.75 30C18.5511 30 18.3603 30.079 18.2197 30.2197C18.079 30.3603 18 30.5511 18 30.75ZM36 30.75C36 33.645 33.645 36 30.75 36C29.4884 35.9975 28.2699 35.5412 27.317 34.7144C26.3641 33.8876 25.7404 32.7456 25.56 31.497C25.5495 31.4985 25.5405 31.5045 25.5285 31.5045L24.7695 31.53H24.744C24.5506 31.525 24.3666 31.4455 24.2304 31.308C24.0943 31.1705 24.0165 30.9857 24.0134 30.7923C24.0103 30.5988 24.0821 30.4116 24.2138 30.2698C24.3455 30.1281 24.5268 30.0427 24.72 30.0315L25.479 30.006C25.506 30.003 25.5315 30.015 25.557 30.0165C25.7345 28.7649 26.3573 27.6193 27.3112 26.7897C28.265 25.9602 29.4859 25.5023 30.75 25.5C33.645 25.5 36 27.855 36 30.75ZM34.5 30.75C34.5 28.683 32.817 27 30.75 27C28.683 27 27 28.683 27 30.75C27 32.817 28.683 34.5 30.75 34.5C32.817 34.5 34.5 32.817 34.5 30.75Z" fill="#497CE3"/>
</g>
<defs>
<clipPath id="clip0_153_2643">
<rect width="36" height="36" fill="white"/>
</clipPath>
</defs>
</svg>
