<svg width="36" height="36" viewBox="0 0 36 36" fill="none" xmlns="http://www.w3.org/2000/svg">
<g clip-path="url(#clip0_181_909)">
<path d="M31.5593 22.2766V13.7251C31.8522 13.655 32.1402 13.5431 32.4142 13.3855C33.9494 12.4938 34.4734 10.5358 33.5909 9.00063C32.6992 7.46546 30.7411 6.94148 29.206 7.82397C28.9298 7.98438 28.687 8.17972 28.4785 8.40048L21.0745 4.12563C21.5387 2.57741 20.7742 0.899792 19.2509 0.254875C17.6171 -0.436801 15.7374 0.324701 15.0458 1.9585C14.7435 2.67248 14.7188 3.43339 14.9231 4.12161L7.51891 8.39653C6.52523 7.3495 4.91073 7.06768 3.60274 7.81441C2.06495 8.69234 1.52191 10.6544 2.39983 12.1922C2.85709 12.9931 3.60864 13.5234 4.44097 13.7244V22.2781C2.9544 22.6407 1.89859 24.0207 1.99541 25.5973C2.10395 27.3648 3.62532 28.7041 5.40098 28.5997C6.2406 28.5443 6.98277 28.1731 7.52009 27.6101L14.923 31.8843C14.4885 33.3494 15.1519 34.9553 16.5674 35.6618C18.1548 36.4541 20.0825 35.8032 20.8707 34.2239C21.2658 33.4323 21.3039 32.5571 21.046 31.7802L28.4057 27.531C28.9995 28.1983 29.8654 28.6166 30.827 28.6074C32.5977 28.5906 34.0283 27.1423 34.0115 25.3716C34.0039 23.8654 32.9635 22.6135 31.5593 22.2766ZM8.31695 24.6373C8.16837 24.0282 7.8494 23.4913 7.41542 23.0766L17.1073 6.29026C17.7077 6.4653 18.3265 6.45665 18.8964 6.2907L28.5873 23.0755C28.1491 23.4927 27.8286 24.0315 27.6814 24.6373H8.31695ZM28.0293 12.2089C28.4809 12.9945 29.2168 13.5145 30.0333 13.7175V22.2815C29.9919 22.2917 29.9508 22.3028 29.9101 22.3146L20.2183 5.52852C20.2475 5.50064 20.2758 5.47185 20.304 5.44279L27.725 9.72745C27.4957 10.5329 27.5792 11.4258 28.0293 12.2089ZM15.7841 5.53026L6.09403 22.3134C6.05198 22.3012 6.00965 22.2896 5.96694 22.2791V13.72C6.24441 13.6507 6.51715 13.5438 6.7776 13.3951C8.08896 12.6464 8.67275 11.1153 8.27494 9.72205L15.6921 5.43963C15.722 5.47051 15.7529 5.50051 15.7841 5.53026ZM20.3721 30.6302C20.1128 30.3458 19.7982 30.103 19.4328 29.9207C18.1448 29.2778 16.6356 29.5798 15.6889 30.5644L8.28229 26.2881C8.29429 26.2468 8.30566 26.2053 8.31602 26.1633H27.6851C27.7026 26.2344 27.7216 26.3049 27.7438 26.374L20.3721 30.6302Z" fill="#7963E6"/>
</g>
<defs>
<clipPath id="clip0_181_909">
<rect width="36" height="36" fill="white"/>
</clipPath>
</defs>
</svg>
