<svg width="36" height="36" viewBox="0 0 36 36" fill="none" xmlns="http://www.w3.org/2000/svg">
<path d="M32.8359 5.17236H3.16406C1.4194 5.17236 0 6.59176 0 8.33643V27.664C0 29.4087 1.4194 30.8281 3.16406 30.8281H32.8359C34.5806 30.8281 36 29.4087 36 27.664V8.33643C36 6.59169 34.5806 5.17236 32.8359 5.17236ZM33.8906 27.664C33.8906 28.2456 33.4175 28.7187 32.8359 28.7187H3.16406C2.58251 28.7187 2.10938 28.2456 2.10938 27.664V12.5133H33.8906V27.664ZM33.8906 10.404H2.10938V8.33643C2.10938 7.75487 2.58251 7.28174 3.16406 7.28174H32.8359C33.4175 7.28174 33.8906 7.75487 33.8906 8.33643V10.404Z" fill="#29B6F6"/>
<path d="M12.0756 15.2764C10.1948 15.2764 8.66455 16.8066 8.66455 18.6874V23.2901C8.66455 23.8726 9.13677 24.3448 9.71924 24.3448C10.3017 24.3448 10.7739 23.8726 10.7739 23.2901V21.2908H13.3771V23.2901C13.3771 23.8726 13.8493 24.3448 14.4318 24.3448C15.0143 24.3448 15.4865 23.8726 15.4865 23.2901V18.6874C15.4866 16.8066 13.9563 15.2764 12.0756 15.2764ZM13.3772 19.1815H10.774V18.6874C10.774 17.9697 11.3579 17.3858 12.0756 17.3858C12.7932 17.3858 13.3772 17.9697 13.3772 18.6874V19.1815Z" fill="#29B6F6"/>
<path d="M20.7601 15.2764H18C17.4175 15.2764 16.9453 15.7486 16.9453 16.3311V23.2901C16.9453 23.8726 17.4175 24.3448 18 24.3448C18.5825 24.3448 19.0547 23.8726 19.0547 23.2901V21.2908H20.7601C22.4183 21.2908 23.7674 19.9417 23.7674 18.2835C23.7674 16.6254 22.4183 15.2764 20.7601 15.2764ZM20.7601 19.1815H19.0547V17.3858H20.7601C21.2552 17.3858 21.658 17.7886 21.658 18.2837C21.658 18.7788 21.2552 19.1815 20.7601 19.1815Z" fill="#29B6F6"/>
<path d="M26.2808 15.2764C25.6983 15.2764 25.2261 15.7486 25.2261 16.3311V23.2901C25.2261 23.8726 25.6983 24.3448 26.2808 24.3448C26.8632 24.3448 27.3354 23.8726 27.3354 23.2901V16.3311C27.3354 15.7486 26.8632 15.2764 26.2808 15.2764Z" fill="#29B6F6"/>
</svg>
