<svg width="36" height="36" viewBox="0 0 36 36" fill="none" xmlns="http://www.w3.org/2000/svg">
<path d="M4.5 4.5H31.5V31.5H4.5V4.5ZM11.595 27.06C12.195 28.335 13.38 29.385 15.405 29.385C17.655 29.385 19.2 28.185 19.2 25.56V16.89H16.65V25.5C16.65 26.79 16.125 27.12 15.3 27.12C14.43 27.12 14.07 26.52 13.665 25.815L11.595 27.06ZM20.565 26.79C21.315 28.26 22.83 29.385 25.2 29.385C27.6 29.385 29.4 28.14 29.4 25.845C29.4 23.73 28.185 22.785 26.025 21.855L25.395 21.585C24.3 21.12 23.835 20.805 23.835 20.055C23.835 19.44 24.3 18.96 25.05 18.96C25.77 18.96 26.25 19.275 26.685 20.055L28.65 18.75C27.825 17.31 26.655 16.755 25.05 16.755C22.785 16.755 21.33 18.195 21.33 20.1C21.33 22.17 22.545 23.145 24.375 23.925L25.005 24.195C26.175 24.705 26.865 25.02 26.865 25.89C26.865 26.61 26.19 27.135 25.14 27.135C23.895 27.135 23.175 26.49 22.635 25.59L20.565 26.79Z" fill="#FFCB6B"/>
</svg>
