<svg width="36" height="36" viewBox="0 0 36 36" fill="none" xmlns="http://www.w3.org/2000/svg">
<path d="M20.7688 2.47168C20.5434 2.47168 20.3341 2.51997 20.1409 2.58439C20.5514 2.8581 20.7768 3.22039 20.8895 3.63094C20.8976 3.68729 20.9137 3.72755 20.9217 3.7839C20.9298 3.83218 20.9378 3.8805 20.9378 3.9288C20.97 4.63724 20.7527 4.72577 20.5997 5.14439C20.3663 5.68379 20.4307 6.26342 20.7124 6.73034C20.7366 6.78669 20.7688 6.85109 20.809 6.90744C20.5031 4.87072 22.2018 4.56481 22.5157 3.9288C22.5399 3.3733 22.081 3.00303 21.7187 2.74541C21.3726 2.53611 21.0586 2.47168 20.7688 2.47168ZM23.3288 2.93057C23.2966 3.11573 23.3208 3.06743 23.3127 3.16404C23.3047 3.22844 23.3047 3.30894 23.2967 3.37335C23.2806 3.43776 23.2644 3.50215 23.2403 3.56656C23.2242 3.63096 23.2 3.69535 23.1759 3.75976C23.1437 3.82416 23.1195 3.88053 23.0873 3.94492C23.0632 3.97717 23.0471 4.00932 23.0229 4.04153C23.0068 4.06566 22.9907 4.08981 22.9746 4.11398C22.9344 4.17033 22.8941 4.22669 22.8539 4.27499C22.8056 4.32327 22.7653 4.37964 22.709 4.4199V4.42793C22.6607 4.46816 22.6124 4.51649 22.556 4.55674C22.387 4.68554 22.1937 4.78214 22.0166 4.9029C21.9603 4.94313 21.9039 4.97535 21.8556 5.02366C21.7993 5.06389 21.7509 5.10416 21.7027 5.15246C21.6463 5.20075 21.606 5.24907 21.5577 5.30542C21.5175 5.35369 21.4692 5.41008 21.437 5.46643C21.3967 5.52278 21.3565 5.57914 21.3243 5.63549C21.2921 5.69988 21.2679 5.75624 21.2357 5.82064C21.2116 5.88505 21.1874 5.9414 21.1713 6.0058C21.1472 6.07826 21.1311 6.14266 21.115 6.20707C21.1069 6.23927 21.1069 6.27952 21.0989 6.31172C21.0908 6.34392 21.0908 6.37612 21.0828 6.40833C21.0828 6.47273 21.0747 6.54519 21.0747 6.60958C21.0747 6.65787 21.0747 6.70619 21.0828 6.75449C21.0828 6.8189 21.0909 6.8833 21.1069 6.95576C21.115 7.02015 21.1311 7.08455 21.1472 7.14896C21.1714 7.21336 21.1875 7.27777 21.2116 7.34217C21.2277 7.38244 21.2518 7.42267 21.268 7.45487L19.4164 6.73841C19.1024 6.64985 18.7965 6.56935 18.4825 6.4969C18.3135 6.45667 18.1444 6.4164 17.9754 6.37614C17.4923 6.27954 17.0013 6.20709 16.5102 6.15878C16.4941 6.15878 16.486 6.15071 16.47 6.15071C15.9869 6.10243 15.512 6.07826 15.029 6.07826C14.6747 6.07826 14.3205 6.09436 13.9743 6.11849C13.4832 6.15074 12.9922 6.2151 12.5011 6.2956C12.3804 6.3117 12.2596 6.33583 12.1389 6.36001C11.8893 6.40828 11.6478 6.46466 11.4143 6.52102C11.2936 6.55322 11.1728 6.58542 11.052 6.61762C10.9313 6.66589 10.8186 6.72227 10.7059 6.77057C10.6173 6.8108 10.5288 6.85107 10.4402 6.89133C10.4241 6.8994 10.408 6.8994 10.4 6.90743C10.3195 6.94766 10.247 6.97988 10.1746 7.02013C10.1504 7.02816 10.1343 7.03623 10.1182 7.04426C10.0297 7.08449 9.9411 7.13281 9.86865 7.17306C9.81229 7.19719 9.75594 7.22942 9.70764 7.25357C9.68349 7.26967 9.65128 7.28577 9.63519 7.2938C9.56273 7.33403 9.49028 7.3743 9.42587 7.41456C9.35342 7.45479 9.28902 7.49507 9.23267 7.53531C9.17632 7.57554 9.11996 7.60777 9.07166 7.64802C9.0636 7.65609 9.05557 7.65608 9.04751 7.66411C8.9992 7.69636 8.94285 7.73658 8.89455 7.77683C8.89455 7.77683 8.88649 7.78485 8.87846 7.79292C8.83821 7.82517 8.79796 7.85733 8.75771 7.88953C8.74162 7.8976 8.72549 7.91366 8.7094 7.92173C8.66916 7.95398 8.6289 7.99419 8.58865 8.02639C8.58059 8.04249 8.5645 8.05051 8.55644 8.05863C8.50813 8.10691 8.45983 8.14718 8.41153 8.19549C8.40347 8.19549 8.40347 8.20351 8.39544 8.21159C8.34714 8.25182 8.29883 8.30015 8.25053 8.34846C8.24247 8.35653 8.24247 8.36455 8.23444 8.36455C8.1942 8.40478 8.15394 8.44506 8.11369 8.49335C8.0976 8.50945 8.07344 8.5256 8.05734 8.54163C8.01709 8.58991 7.96878 8.63825 7.92048 8.68654C7.91242 8.70264 7.89633 8.71067 7.88827 8.72677C7.82387 8.79118 7.76752 8.85558 7.70311 8.91998C7.69505 8.92801 7.68703 8.93608 7.67896 8.94411C7.55015 9.08097 7.4133 9.21782 7.26839 9.33858C7.12348 9.46738 6.97053 9.58813 6.81757 9.69279C6.65656 9.8055 6.5036 9.9021 6.33455 9.99871C6.17354 10.0873 6.00448 10.1678 5.82739 10.2402C5.65833 10.3127 5.48123 10.3771 5.30414 10.4334C4.96602 10.5059 4.61983 10.6427 4.32199 10.6669C4.25759 10.6669 4.18514 10.683 4.12073 10.691C4.04828 10.7071 3.98388 10.7233 3.91948 10.7393C3.85507 10.7634 3.79067 10.7876 3.72627 10.8117C3.66187 10.8359 3.59746 10.8681 3.53306 10.9003C3.47671 10.9405 3.4123 10.9728 3.35595 11.013C3.2996 11.0532 3.24324 11.1016 3.19494 11.1499C3.13859 11.1901 3.08224 11.2465 3.03393 11.2948C2.98563 11.3511 2.93733 11.3994 2.89708 11.4558C2.85683 11.5202 2.80852 11.5765 2.77632 11.6409C2.73607 11.6973 2.69582 11.7617 2.66362 11.8261C2.6314 11.8986 2.59921 11.963 2.57506 12.0354C2.55091 12.0998 2.52676 12.1723 2.50261 12.2447C2.48652 12.3091 2.47039 12.3735 2.46236 12.4379C2.46236 12.446 2.4543 12.454 2.4543 12.462C2.43821 12.5345 2.43821 12.6311 2.43015 12.6794C2.42209 12.7358 2.41406 12.7841 2.41406 12.8404C2.41406 12.8726 2.41406 12.9129 2.42212 12.9451C2.43018 13.0014 2.43821 13.0497 2.45434 13.098C2.47042 13.1463 2.48655 13.1946 2.51069 13.2429V13.251C2.53484 13.2993 2.56704 13.3476 2.59924 13.3959C2.63146 13.4442 2.66365 13.4925 2.70389 13.5408C2.74414 13.5811 2.79245 13.6294 2.84075 13.6696C2.88905 13.7179 2.93736 13.7582 2.99371 13.7984C3.18692 13.9675 3.23522 14.0239 3.48481 14.1527C3.52505 14.1768 3.56531 14.1929 3.61361 14.2171C3.62167 14.2171 3.6297 14.2251 3.63776 14.2251C3.63776 14.2412 3.63776 14.2492 3.64582 14.2653C3.65388 14.3297 3.66997 14.3941 3.68607 14.4585C3.70216 14.531 3.72632 14.5954 3.75048 14.6517C3.77463 14.7 3.79073 14.7483 3.81488 14.7966C3.82294 14.8127 3.83097 14.8288 3.83903 14.8369C3.87125 14.9013 3.90344 14.9576 3.93563 15.014C3.97589 15.0703 4.01614 15.1267 4.05639 15.183C4.09664 15.2313 4.14494 15.2877 4.19324 15.336C4.24155 15.3843 4.28985 15.4245 4.34621 15.4728C4.34621 15.4728 4.35427 15.4809 4.36229 15.4809C4.4106 15.5212 4.4589 15.5614 4.5072 15.5936C4.56355 15.6338 4.61991 15.666 4.68431 15.6982C4.74066 15.7305 4.80507 15.7626 4.86947 15.7868C4.91777 15.8109 4.97412 15.827 5.03048 15.8431C5.03854 15.8512 5.04656 15.8512 5.06269 15.8592C5.09491 15.8673 5.13514 15.8753 5.16734 15.8834C5.14319 16.3181 5.13513 16.7287 5.19956 16.8736C5.27201 17.0346 5.62622 16.5435 5.98042 15.98C5.93212 16.5355 5.89992 17.1875 5.98042 17.3807C6.06898 17.582 6.55198 16.9541 6.9706 16.2618C12.6784 14.9415 17.8869 18.8862 18.4344 24.4568C18.3297 23.5874 17.259 23.1044 16.768 23.2252C16.5264 23.8209 16.1158 24.5857 15.4557 25.0606C15.5121 24.5293 15.4879 23.9819 15.3752 23.4506C15.1981 24.1912 14.8519 24.8835 14.377 25.4793C13.6122 25.5356 12.8474 25.1653 12.4449 24.6098C12.4126 24.5857 12.4046 24.5374 12.3805 24.5052C12.3563 24.4488 12.3322 24.3925 12.3161 24.3361C12.2919 24.2798 12.2758 24.2234 12.2678 24.167C12.2597 24.1107 12.2597 24.0543 12.2597 23.9899V23.8692C12.2678 23.8128 12.2838 23.7565 12.2999 23.7001C12.316 23.6438 12.3322 23.5874 12.3563 23.5311C12.3885 23.4747 12.4126 23.4184 12.4529 23.362C12.5898 22.9756 12.5898 22.6616 12.3402 22.4765C12.2919 22.4442 12.2436 22.4201 12.1872 22.396C12.155 22.3879 12.1148 22.3718 12.0826 22.3638C12.0584 22.3557 12.0423 22.3477 12.0182 22.3396C11.9618 22.3235 11.9055 22.3074 11.8491 22.2994C11.7928 22.2833 11.7364 22.2753 11.6801 22.2753C11.6237 22.2672 11.5593 22.2592 11.503 22.2592C11.4627 22.2592 11.4224 22.2672 11.3822 22.2672C11.3178 22.2672 11.2614 22.2753 11.2051 22.2913C11.1487 22.2994 11.0924 22.3074 11.036 22.3235C10.9797 22.3396 10.9233 22.3558 10.867 22.3799C10.8106 22.404 10.7623 22.4282 10.706 22.4523C10.6577 22.4765 10.6094 22.5087 10.553 22.5328C8.67724 23.7565 9.79627 26.6224 11.0763 27.4515C10.5932 27.5401 10.1022 27.6447 9.96531 27.7494C9.95725 27.7575 9.94922 27.7655 9.94922 27.7655C10.2954 27.9748 10.6577 28.1519 11.036 28.3048C11.5512 28.4739 12.0987 28.6268 12.3402 28.6913V28.6993C13.0083 28.8361 13.6846 28.8845 14.3689 28.8442C17.9352 28.5946 20.8573 25.8817 21.3888 22.3073C21.4049 22.3797 21.421 22.4441 21.4371 22.5166C21.4613 22.6615 21.4935 22.8144 21.5096 22.9674V22.9754C21.5256 23.0479 21.5337 23.1203 21.5418 23.1847V23.217C21.5498 23.2894 21.5579 23.3619 21.5579 23.4263C21.5659 23.5148 21.5739 23.6034 21.5739 23.692V23.8208C21.5739 23.861 21.582 23.9093 21.582 23.9496C21.582 23.9979 21.5739 24.0462 21.5739 24.0945V24.2072C21.5739 24.2635 21.5659 24.3118 21.5659 24.3682C21.5659 24.4004 21.5659 24.4326 21.5578 24.4728C21.5578 24.5292 21.5498 24.5855 21.5498 24.65C21.5417 24.6741 21.5417 24.6982 21.5417 24.7224C21.5336 24.7868 21.5256 24.8432 21.5176 24.9076C21.5176 24.9317 21.5176 24.9558 21.5095 24.98C21.5014 25.0605 21.4853 25.133 21.4773 25.2135V25.2215V25.2295C21.4612 25.302 21.4451 25.3825 21.429 25.4549V25.4791C21.4129 25.5515 21.3968 25.624 21.3807 25.6964C21.3807 25.7045 21.3726 25.7206 21.3726 25.7286C21.3565 25.8011 21.3404 25.8735 21.3163 25.946V25.9701C21.2921 26.0506 21.268 26.1231 21.2519 26.1955C21.2438 26.2036 21.2438 26.2116 21.2438 26.2116C21.2196 26.2922 21.1955 26.3727 21.1714 26.4532C21.1391 26.5337 21.115 26.6061 21.0828 26.6866C21.0506 26.7671 21.0264 26.8476 20.9942 26.9201C20.962 27.0006 20.9298 27.073 20.8976 27.1535H20.8896C20.8574 27.226 20.8252 27.3065 20.7849 27.3789C20.7769 27.4031 20.7688 27.4192 20.7608 27.4353C20.7527 27.4433 20.7527 27.4514 20.7447 27.4594C20.2214 28.514 19.4485 29.4398 18.4825 30.1644C18.4181 30.2046 18.3537 30.2529 18.2893 30.3012C18.2732 30.3173 18.2491 30.3253 18.233 30.3414C18.1766 30.3817 18.1203 30.4219 18.0559 30.4622L18.08 30.5105H18.0881C18.2008 30.4944 18.3135 30.4782 18.4262 30.4622H18.4343C18.6436 30.43 18.8529 30.3897 19.0622 30.3495C19.1185 30.3415 19.1829 30.3254 19.2393 30.3093C19.2795 30.3012 19.3118 30.2932 19.352 30.2851C19.4084 30.2771 19.4647 30.261 19.5211 30.2529C19.5694 30.2368 19.6177 30.2288 19.666 30.2127C20.471 30.0195 21.2519 29.7538 22.0006 29.4399C20.7206 31.1868 19.0058 32.5956 17.0012 33.5214C17.927 33.457 18.8528 33.304 19.7463 33.0464C22.9906 32.0884 25.7195 29.9068 27.3541 26.9685C27.024 28.8282 26.2834 30.5993 25.1885 32.1448C25.9694 31.6296 26.6859 31.0339 27.338 30.3576C29.1413 28.4738 30.3246 26.0829 30.7272 23.515C31.0009 24.787 31.0814 26.0992 30.9606 27.3953C36.7732 19.2887 31.4437 10.8841 29.2137 8.67031C29.2057 8.65421 29.1976 8.64618 29.1976 8.63008C29.1896 8.63811 29.1896 8.6381 29.1896 8.64618C29.1896 8.63815 29.1896 8.63815 29.1815 8.63008C29.1815 8.72668 29.1735 8.82328 29.1654 8.91989C29.1413 9.10505 29.1171 9.28215 29.0849 9.45924C29.0447 9.63635 28.9964 9.81346 28.9481 9.99057C28.8917 10.1596 28.8273 10.3367 28.7549 10.5058C28.6824 10.6668 28.6019 10.8359 28.5133 10.9969C28.4248 11.1499 28.3282 11.3109 28.2235 11.4558C28.1189 11.6087 28.0062 11.7537 27.8935 11.8905C27.7727 12.0354 27.6439 12.1642 27.5151 12.293C27.4346 12.3655 27.3621 12.4299 27.2816 12.4943C27.2172 12.5506 27.1609 12.5989 27.0965 12.6553C26.9516 12.768 26.8067 12.8727 26.6456 12.9693C26.4927 13.0659 26.3317 13.1625 26.1707 13.243C26.0016 13.3235 25.8326 13.3959 25.6635 13.4684C25.4945 13.5328 25.3174 13.5891 25.1402 13.6374C24.9631 13.6857 24.778 13.726 24.6009 13.7582C24.4157 13.7904 24.2306 13.8065 24.0535 13.8226C23.9247 13.8307 23.7959 13.8387 23.667 13.8387C23.4819 13.8387 23.2967 13.8226 23.1196 13.8064C22.9345 13.7903 22.7493 13.7662 22.5722 13.7259C22.387 13.6937 22.2099 13.6454 22.0328 13.5891H22.0247C22.2018 13.573 22.379 13.5568 22.5561 13.5247C22.7412 13.4925 22.9183 13.4522 23.0954 13.4039C23.2725 13.3556 23.4496 13.2993 23.6187 13.2349C23.7958 13.1705 23.9648 13.09 24.1258 13.0095C24.2949 12.929 24.4478 12.8404 24.6088 12.7438C24.7618 12.6391 24.9148 12.5345 25.0597 12.4218C25.2046 12.3091 25.3414 12.1883 25.4702 12.0595C25.6071 11.9388 25.7278 11.8019 25.8486 11.6651C25.9694 11.5202 26.0821 11.3752 26.1867 11.2303C26.2028 11.2062 26.2189 11.174 26.235 11.1498C26.3155 11.021 26.396 10.8922 26.4685 10.7634C26.557 10.6024 26.6375 10.4414 26.71 10.2723C26.7825 10.1032 26.8469 9.93419 26.9032 9.75709C26.9596 9.58803 26.9998 9.41092 27.0401 9.23383C27.0723 9.04867 27.1045 8.87155 27.1206 8.69443C27.1367 8.50927 27.1528 8.32411 27.1528 8.14701C27.1528 8.01819 27.1447 7.8894 27.1367 7.76058C27.1206 7.57543 27.0964 7.39831 27.0723 7.22123C27.0401 7.03606 26.9998 6.85894 26.9515 6.68183C26.8952 6.51278 26.8388 6.33568 26.7744 6.16661C26.71 5.99755 26.6295 5.82849 26.549 5.66748C26.4605 5.50648 26.3719 5.34547 26.2753 5.19253C26.1707 5.03958 26.066 4.89466 25.9533 4.74976C25.8325 4.6129 25.7118 4.47605 25.583 4.33919C25.5186 4.2748 25.4461 4.20234 25.3737 4.13793C25.0114 3.85617 24.633 3.59051 24.2547 3.34899C24.1983 3.31679 24.15 3.29265 24.0937 3.26849C23.828 3.09943 23.5784 3.01107 23.3288 2.93057Z" fill="#EA2845"/>
</svg>
