<svg width="36" height="36" viewBox="0 0 36 36" fill="none" xmlns="http://www.w3.org/2000/svg">
<g clip-path="url(#clip0_180_907)">
<path d="M18.0113 36.0223C17.5327 36.0214 17.0629 35.8932 16.6501 35.651L12.3031 33.041C11.6551 32.6743 11.9723 32.5415 12.1861 32.4673C12.8764 32.2518 13.5364 31.9494 14.1503 31.5673C14.2022 31.543 14.2595 31.5325 14.3167 31.5368C14.3739 31.5411 14.4289 31.5602 14.4766 31.592L17.8133 33.6035C17.8754 33.6374 17.9451 33.6551 18.0158 33.6551C18.0866 33.6551 18.1562 33.6374 18.2183 33.6035L31.2323 25.9805C31.2932 25.9428 31.3433 25.8901 31.378 25.8275C31.4127 25.7648 31.4307 25.6943 31.4303 25.6228V10.3678C31.4305 10.295 31.4123 10.2234 31.3772 10.1597C31.3422 10.0959 31.2916 10.0421 31.2301 10.0033L18.2251 2.38701C18.1641 2.35208 18.0951 2.3337 18.0248 2.3337C17.9546 2.3337 17.8855 2.35208 17.8246 2.38701L4.81058 10.0078C4.74812 10.0454 4.69645 10.0985 4.66058 10.162C4.6247 10.2254 4.60584 10.2971 4.60583 10.37V25.6183C4.60561 25.69 4.62445 25.7605 4.66043 25.8226C4.6964 25.8846 4.74822 25.936 4.81058 25.9715L8.37683 28.0618C10.3118 29.0428 11.4953 27.8863 11.4953 26.7253V11.6705C11.495 11.6207 11.5046 11.5713 11.5235 11.5252C11.5423 11.479 11.5701 11.4371 11.6052 11.4018C11.6404 11.3664 11.6821 11.3384 11.7281 11.3192C11.7742 11.3001 11.8235 11.2903 11.8733 11.2903H13.5226C13.5722 11.2906 13.6213 11.3006 13.6671 11.3199C13.7128 11.3392 13.7543 11.3673 13.7892 11.4026C13.8241 11.4379 13.8517 11.4797 13.8704 11.5257C13.8891 11.5717 13.8986 11.6209 13.8983 11.6705V26.723C13.9718 27.2584 13.925 27.8035 13.7614 28.3186C13.5979 28.8337 13.3216 29.3059 12.9527 29.7008C12.5838 30.0958 12.1316 30.4036 11.6289 30.6019C11.1261 30.8002 10.5855 30.884 10.0463 30.8473C8.98773 30.8656 7.94632 30.5781 7.04708 30.0193L3.63383 28.0258C3.21669 27.7771 2.87143 27.4242 2.63198 27.0017C2.39252 26.5792 2.26711 26.1016 2.26808 25.616V10.3678C2.26684 9.88238 2.39215 9.40506 2.63165 8.98287C2.87115 8.56069 3.21656 8.20823 3.63383 7.96026L16.6501 0.328261C17.0684 0.0953761 17.5393 -0.0268555 18.0181 -0.0268555C18.4969 -0.0268555 18.9677 0.0953761 19.3861 0.328261L32.4001 7.96026C32.8175 8.20829 33.1631 8.5607 33.4029 8.98283C33.6428 9.40495 33.7686 9.88225 33.7681 10.3678V25.6138C33.7681 26.0995 33.6421 26.5769 33.4023 26.9993C33.1625 27.4217 32.8172 27.7746 32.4001 28.0235L19.3861 35.651C18.9706 35.8948 18.4975 36.023 18.0158 36.0223H18.0113ZM22.0321 25.517C16.3351 25.517 15.1426 22.862 15.1426 20.6368C15.141 20.5859 15.1499 20.5353 15.1685 20.4879C15.1871 20.4406 15.2151 20.3975 15.2509 20.3613C15.2867 20.3251 15.3294 20.2966 15.3765 20.2774C15.4237 20.2582 15.4742 20.2488 15.5251 20.2498H17.2013C17.2921 20.2499 17.3798 20.2827 17.4484 20.3422C17.517 20.4017 17.5619 20.4839 17.5748 20.5738C17.8291 22.313 18.5851 23.1905 22.0298 23.1905C24.7703 23.1905 25.9381 22.5605 25.9381 21.0845C25.9381 20.2318 25.6096 19.6018 21.3458 19.1765C17.7863 18.8188 15.5813 18.02 15.5813 15.1265C15.5813 12.4603 17.7953 10.8718 21.5056 10.8718C25.6748 10.8718 27.7381 12.341 27.9991 15.4933C28.0034 15.5462 27.9968 15.5994 27.9798 15.6497C27.9628 15.7001 27.9357 15.7463 27.9001 15.7858C27.8651 15.8245 27.8224 15.8555 27.7747 15.8768C27.7271 15.8981 27.6755 15.9092 27.6233 15.9095H25.9358C25.85 15.9087 25.7671 15.8786 25.7008 15.8242C25.6345 15.7698 25.5888 15.6943 25.5713 15.6103C25.1663 13.781 24.1786 13.196 21.5078 13.196C18.5131 13.196 18.1666 14.2535 18.1666 15.0478C18.1666 16.0108 18.5783 16.2898 22.6193 16.832C26.6198 17.3675 28.5211 18.128 28.5211 20.981C28.5211 23.834 26.1586 25.508 22.0343 25.508L22.0321 25.517Z" fill="#73B923"/>
</g>
<defs>
<clipPath id="clip0_180_907">
<rect width="36" height="36" fill="white"/>
</clipPath>
</defs>
</svg>
