<svg width="36" height="36" viewBox="0 0 36 36" fill="none" xmlns="http://www.w3.org/2000/svg">
<g clip-path="url(#clip0_153_2674)">
<path fill-rule="evenodd" clip-rule="evenodd" d="M16.9515 17.4828C19.3871 15.1622 18.6439 12.292 16.438 8.81412C14.232 5.33622 9.79151 4.0989 8.96309 4.88818C8.13468 5.67746 7.95106 11.3205 10.157 14.7984C12.3629 18.2763 14.5158 19.8034 16.9515 17.4828Z" fill="#52CE63"/>
<path fill-rule="evenodd" clip-rule="evenodd" d="M19.0575 17.8042C20.8594 20.6451 23.2684 19.6064 26.2502 16.7654C29.232 13.9245 30.4684 8.48253 29.8555 7.51628C29.2427 6.55003 24.5853 6.59848 21.6035 9.43941C18.6217 12.2803 17.2556 14.9633 19.0575 17.8042Z" fill="#52CE63"/>
<path fill-rule="evenodd" clip-rule="evenodd" d="M18.0723 16.2411C21.0643 16.6085 22.2409 13.8443 22.7895 9.37626C23.3382 4.90817 21.0766 0.185696 20.059 0.0607464C19.0413 -0.0642034 15.6225 3.96081 15.0739 8.42889C14.5253 12.897 15.0803 15.8737 18.0723 16.2411Z" fill="#52CE63"/>
<path fill-rule="evenodd" clip-rule="evenodd" d="M17.3184 36.0002C23.5915 36.0002 28.6789 34.178 28.6789 25.9138C28.6789 17.6497 23.5915 10.8682 17.3184 10.8682C11.0453 10.8682 5.96191 17.6497 5.96191 25.9138C5.96191 34.178 11.0453 36.0002 17.3184 36.0002Z" fill="#FFC63A"/>
<path d="M23.0562 24.2267C23.9524 24.2267 24.6789 23.8888 24.6789 23.472C24.6789 23.0552 23.9524 22.7173 23.0562 22.7173C22.1601 22.7173 21.4336 23.0552 21.4336 23.472C21.4336 23.8888 22.1601 24.2267 23.0562 24.2267Z" fill="#EAADCC"/>
<path d="M11.0399 23.7682C11.9294 23.8774 12.6916 23.6306 12.7424 23.2169C12.7932 22.8031 12.1133 22.3792 11.2238 22.27C10.3343 22.1608 9.5721 22.4076 9.5213 22.8214C9.47051 23.2351 10.1504 23.659 11.0399 23.7682Z" fill="#EAADCC"/>
<path d="M18.3578 23.2044C17.8694 23.6013 17.3053 23.7632 16.6656 23.69C16.0258 23.6169 15.5516 23.3514 15.2429 22.8934" stroke="black" stroke-width="0.201258" stroke-linecap="round" stroke-linejoin="round"/>
<path fill-rule="evenodd" clip-rule="evenodd" d="M12.0736 19.2768C12.5214 19.2612 12.9332 19.4285 13.2369 19.7117C13.5406 19.9949 13.7363 20.394 13.7519 20.8418C13.7676 21.2897 13.6002 21.7014 13.317 22.0051C13.0338 22.3089 12.6347 22.5045 12.1868 22.5202C11.739 22.5358 11.3273 22.3684 11.0236 22.0852C10.7199 21.802 10.5243 21.4029 10.5086 20.9551C10.493 20.5073 10.6603 20.0955 10.9435 19.7918C11.2267 19.4881 11.6258 19.2925 12.0736 19.2768Z" fill="black"/>
<path fill-rule="evenodd" clip-rule="evenodd" d="M12.1591 20.633C12.1489 20.3414 11.9041 20.1132 11.6127 20.1234C11.3211 20.1336 11.0929 20.3783 11.1031 20.6698C11.1133 20.9614 11.3579 21.1896 11.6496 21.1794C11.941 21.1691 12.1692 20.9245 12.1591 20.633Z" fill="white"/>
<path fill-rule="evenodd" clip-rule="evenodd" d="M21.9057 19.6885C22.3535 19.6728 22.7653 19.8402 23.069 20.1234C23.3727 20.4066 23.5683 20.8056 23.584 21.2534C23.5996 21.7013 23.4323 22.1131 23.1491 22.4168C22.8659 22.7205 22.4668 22.9161 22.0189 22.9318C21.5711 22.9474 21.1594 22.7801 20.8557 22.4968C20.552 22.2136 20.3563 21.8146 20.3407 21.3667C20.325 20.9189 20.4924 20.5072 20.7756 20.2035C21.0588 19.8998 21.4579 19.7041 21.9057 19.6885Z" fill="black"/>
<path d="M13.526 20.8495C13.553 21.6203 12.95 22.2668 12.1793 22.2937C11.4087 22.3206 10.7622 21.7177 10.7353 20.947C10.7084 20.1763 11.3112 19.5298 12.0819 19.5029C12.8526 19.476 13.4991 20.0789 13.526 20.8495ZM13.9786 20.8337C13.943 19.8131 13.0867 19.0147 12.066 19.0504C11.0455 19.086 10.2471 19.9422 10.2827 20.9628C10.3184 21.9834 11.1745 22.7819 12.1951 22.7462C13.2158 22.7106 14.0142 21.8544 13.9786 20.8337Z" fill="white" stroke="white" stroke-width="0.100629"/>
<path d="M23.3576 21.2616C23.3845 22.0324 22.7817 22.6789 22.0109 22.7058C21.2403 22.7327 20.5937 22.1298 20.5668 21.3591C20.5399 20.5884 21.1428 19.9419 21.9135 19.915C22.6842 19.8881 23.3307 20.491 23.3576 21.2616ZM23.8101 21.2458C23.7745 20.2252 22.9183 19.4268 21.8977 19.4625C20.8771 19.4981 20.0786 20.3543 20.1143 21.3749C20.1499 22.3955 21.0061 23.194 22.0267 23.1583C23.0474 23.1227 23.8458 22.2665 23.8101 21.2458Z" fill="white" stroke="white" stroke-width="0.100629"/>
<path fill-rule="evenodd" clip-rule="evenodd" d="M21.9906 21.0451C21.9804 20.7535 21.7357 20.5253 21.4442 20.5355C21.1526 20.5457 20.9245 20.7904 20.9346 21.0819C20.9448 21.3735 21.1895 21.6017 21.4811 21.5915C21.7726 21.5813 22.0008 21.3366 21.9906 21.0451Z" fill="white"/>
</g>
<defs>
<clipPath id="clip0_153_2674">
<rect width="36" height="36" fill="white"/>
</clipPath>
</defs>
</svg>
