<svg width="36" height="36" viewBox="0 0 36 36" fill="none" xmlns="http://www.w3.org/2000/svg">
<g clip-path="url(#clip0_153_2653)">
<path d="M21.1432 17.9173C21.1432 15.4533 18.4751 13.9049 16.3521 15.1369C14.2292 16.3689 14.2292 19.4657 16.3521 20.6977C18.4751 21.9297 21.1432 20.3813 21.1432 17.9173ZM28.4564 11.9991C30.57 1.89587 25.92 -1.2746 18.015 6.03862C10.5749 -0.936415 5.27672 1.26178 7.53128 11.9568C-2.86523 15.091 -2.1764 20.991 7.61582 24.0046C5.37536 33.8542 9.56038 37.4474 18.015 30.0074C26.2159 37.3629 30.5683 33.919 28.3296 23.9623C39.0105 20.341 38.0523 15.0991 28.4564 11.9991ZM27.0191 11.6186C25.3435 11.2407 23.7222 10.9656 22.0732 10.8155C21.2044 9.54508 20.1924 8.2761 19.0295 7.09544C25.3673 1.0162 29.1027 2.91573 27.0191 11.6186ZM10.6595 19.8619C11.2865 21.2005 12.1108 22.4264 12.7308 23.4551C11.7213 23.3518 10.6336 23.195 9.47583 22.9901C9.84681 21.9516 10.2418 20.9088 10.6595 19.8619ZM10.5749 16.2264C10.1137 15.1193 9.69284 14.0507 9.34901 13.0559C10.5442 12.8082 11.7154 12.5832 12.7308 12.5064C11.9751 13.6935 11.2573 14.9347 10.5749 16.2264ZM11.4627 18.0864C12.4964 16.0161 13.5899 14.051 14.8022 12.295C16.9534 12.1713 19.0816 12.1823 21.1854 12.3373C22.3654 13.9814 23.4666 15.9464 24.525 18.0864C23.733 19.7231 22.6084 21.6093 21.3122 23.6242C19.1482 23.788 16.9293 23.7654 14.6754 23.6242C13.5331 21.8741 12.4602 20.0307 11.4627 18.0864ZM25.3282 19.8619C25.7387 20.8579 26.118 21.8732 26.4695 22.9055C25.3846 23.134 24.3143 23.3005 23.2568 23.4128C23.9806 22.2913 24.6673 21.1006 25.3282 19.8619ZM23.2568 12.5064C24.4094 12.6642 25.5229 12.8612 26.5964 13.0982C26.2372 14.1654 25.8292 15.2084 25.3705 16.2264C24.7161 14.9359 24.0136 13.6938 23.2568 12.5064ZM20.0018 10.6464C18.6852 10.5947 17.3459 10.5964 15.9859 10.6464C16.5812 9.86332 17.2449 9.04536 17.9727 8.19454C18.682 8.96017 19.354 9.78425 20.0018 10.6464ZM16.9581 7.09544C15.7952 8.2761 14.7833 9.50281 13.9145 10.7732C12.2655 10.9233 10.6019 11.1984 8.92628 11.5764C6.93945 2.74133 10.6203 1.0162 16.9581 7.09544ZM7.99628 22.6096C-0.810583 19.9605 -0.387854 15.8318 7.91173 13.3941C8.41943 14.9347 9.03405 16.4994 9.72947 18.0019C9.05374 19.5557 8.45553 21.1517 7.99628 22.6096ZM9.09537 24.3851C10.589 24.7514 12.1719 24.9273 13.8299 25.1037C14.8276 26.5117 15.8607 27.8206 16.9581 28.9505C10.5045 35.1365 6.90676 32.889 9.09537 24.3851ZM17.9727 27.8937C17.2079 27.1018 16.4939 26.2045 15.8168 25.2305C17.3262 25.2623 18.784 25.2659 20.1709 25.2305C19.4992 26.1834 18.7656 27.0702 17.9727 27.8937ZM19.0295 28.9505C20.207 27.6712 21.245 26.3742 22.1577 25.0614C23.7154 24.9468 25.2936 24.7075 26.8923 24.3428C29.1007 33.3944 25.0909 34.731 19.0295 28.9505ZM27.9491 22.5251C27.4963 21.0671 26.9244 19.5557 26.2582 18.0019C26.9439 16.4994 27.5331 14.977 28.0336 13.4364C36.136 15.8882 36.7841 19.8055 27.9491 22.5251Z" fill="#26A2C1"/>
</g>
<defs>
<clipPath id="clip0_153_2653">
<rect width="36" height="36" fill="white"/>
</clipPath>
</defs>
</svg>
