<svg width="36" height="36" viewBox="0 0 36 36" fill="none" xmlns="http://www.w3.org/2000/svg">
<path fill-rule="evenodd" clip-rule="evenodd" d="M23.8165 23.6802C24.9295 23.565 25.7739 22.6055 25.7355 21.4541C25.6971 20.3027 24.7376 19.3815 23.5862 19.3815H23.5095C22.3197 19.4199 21.3985 20.4178 21.4369 21.6076C21.4753 22.1833 21.7056 22.6823 22.051 23.0277C20.7461 25.5992 18.7503 27.4798 15.7566 29.0534C13.7224 30.1281 11.6115 30.5119 9.50057 30.2432C7.77345 30.0129 6.43013 29.2453 5.58576 27.9788C4.35758 26.0981 4.24244 24.064 5.27871 22.0298C6.00794 20.5713 7.15936 19.4967 7.88859 18.9594C7.73507 18.4604 7.50478 17.616 7.38964 17.002C1.82447 21.0319 2.40018 26.4819 4.08892 29.0534C5.35547 30.9725 7.92697 32.1623 10.7671 32.1623C11.5347 32.1623 12.3023 32.0855 13.07 31.8936C17.9827 30.9341 21.7056 28.0172 23.8165 23.6802Z" fill="#AB47BC"/>
<path fill-rule="evenodd" clip-rule="evenodd" d="M30.5713 18.9211C27.6544 15.5052 23.3558 13.6246 18.443 13.6246H17.829C17.4835 12.9337 16.7543 12.4731 15.9483 12.4731H15.8716C14.6818 12.5115 13.7606 13.5094 13.799 14.6992C13.8374 15.8506 14.7969 16.7718 15.9483 16.7718H16.0251C16.8694 16.7334 17.5987 16.1961 17.9057 15.4668H18.5966C21.5135 15.4668 24.2769 16.3112 26.7716 17.9616C28.6906 19.2281 30.0723 20.8785 30.84 22.8743C31.4924 24.4862 31.454 26.0598 30.7632 27.4032C29.6885 29.4373 27.8847 30.5504 25.5051 30.5504C23.9698 30.5504 22.5114 30.0898 21.7438 29.7444C21.3216 30.1282 20.554 30.7423 20.0166 31.1261C21.667 31.8937 23.3558 32.3159 24.9677 32.3159C28.6523 32.3159 31.3773 30.2817 32.4136 28.2475C33.5266 26.0215 33.4498 22.1834 30.5713 18.9211Z" fill="#AB47BC"/>
<path fill-rule="evenodd" clip-rule="evenodd" d="M11.0741 24.3328C11.1125 25.4842 12.072 26.4053 13.2234 26.4053H13.3002C14.4899 26.367 15.4111 25.3691 15.3727 24.1793C15.3343 23.0279 14.3748 22.1067 13.2234 22.1067H13.1466C13.0699 22.1067 12.9547 22.1067 12.878 22.1451C11.3044 19.5352 10.6519 16.6951 10.8822 13.6246C11.0357 11.3218 11.8033 9.32602 13.1466 7.67565C14.2597 6.25558 16.409 5.56473 17.8674 5.52635C21.9358 5.44959 23.6629 10.5158 23.778 12.55C24.277 12.6651 25.1213 12.9338 25.6971 13.1257C25.2365 6.90804 21.3984 3.68408 17.7139 3.68408C14.2597 3.68408 11.0741 6.17881 9.80753 9.86334C8.04202 14.776 9.19344 19.4968 11.3427 23.2198C11.1508 23.4884 11.0357 23.9106 11.0741 24.3328Z" fill="#AB47BC"/>
</svg>
