<svg width="36" height="36" viewBox="0 0 36 36" fill="none" xmlns="http://www.w3.org/2000/svg">
<path d="M31.3337 6.10432C30.3752 2.40307 24.0954 1.18582 18.1577 3.24907C14.4512 4.46466 11.0174 6.39136 8.04844 8.92132C4.77919 11.9138 4.25719 14.5171 4.47094 15.6061C5.23144 19.4446 10.6089 21.9533 12.8252 23.8163C12.1727 24.1291 7.40269 26.4916 6.28444 28.9081C6.03922 29.2792 5.87254 29.6966 5.79466 30.1345C5.71677 30.5724 5.72932 31.0217 5.83154 31.4546C5.93376 31.8875 6.12349 32.2949 6.38905 32.6518C6.6546 33.0086 6.99037 33.3073 7.37569 33.5296C8.72799 33.8517 10.1467 33.7496 11.4389 33.2371C12.7311 32.7246 13.8342 31.8267 14.5982 30.6653C15.2154 29.7349 15.6026 28.6711 15.7278 27.5617C15.853 26.4522 15.7126 25.3288 15.3182 24.2843C16.384 24.0201 17.4899 23.9583 18.5784 24.1021C22.3157 24.5296 23.0492 26.8021 22.9074 27.7673C22.8398 28.1098 22.6988 28.4335 22.4941 28.7163C22.2894 28.9991 22.0259 29.2341 21.7217 29.4053C21.4607 29.5651 21.3797 29.6191 21.4022 29.7361C21.4337 29.9071 21.5552 29.9003 21.7779 29.8643C22.3325 29.6949 22.8228 29.3616 23.1843 28.9081C23.5457 28.4547 23.7614 27.9025 23.8029 27.3241C23.8929 25.0853 21.6992 22.5811 17.8157 22.6463C16.6879 22.6156 15.5627 22.7676 14.4834 23.0963L14.3192 22.9186C11.9252 20.4143 7.48369 18.6413 7.67269 15.2731C7.74019 14.0491 8.17669 10.8248 16.2002 6.91432C22.7724 3.71032 28.0352 4.59232 28.9442 6.54532C30.2424 9.33757 26.1317 14.5261 19.3052 15.2731C18.5523 15.424 17.7753 15.4065 17.03 15.2217C16.2846 15.0369 15.5894 14.6895 14.9942 14.2043C14.6364 13.8173 14.5824 13.7993 14.4474 13.8736C14.2224 13.9928 14.3687 14.3236 14.4474 14.5373C14.7131 15.0022 15.0688 15.4094 15.4938 15.7351C15.9188 16.0608 16.4045 16.2984 16.9224 16.4341C19.6056 17.0044 22.3993 16.7341 24.9234 15.6601C29.0522 14.0963 32.2832 9.74257 31.3337 6.10432ZM13.7387 24.9638C14.0406 25.9823 14.0249 27.0685 13.6937 28.0778C13.6577 28.1828 13.6187 28.2871 13.5767 28.3906C13.5347 28.4941 13.4889 28.5953 13.4394 28.6943C13.1828 29.2083 12.8515 29.6814 12.4562 30.0983C12.0309 30.6558 11.4577 31.0827 10.8018 31.3305C10.1459 31.5783 9.43359 31.637 8.74594 31.5001C7.94494 31.0501 8.34544 29.1826 9.78094 27.6998C10.8877 26.6295 12.1585 25.743 13.5452 25.0741L13.7387 24.9638Z" fill="#F03D70"/>
</svg>
