<svg width="36" height="36" viewBox="0 0 36 36" fill="none" xmlns="http://www.w3.org/2000/svg">
<path d="M10.125 15.4123C11.175 11.2123 13.8 9.1123 18 9.1123C24.3 9.1123 25.0875 13.8373 28.2375 14.6248C30.3375 15.1498 32.175 14.3623 33.75 12.2623C32.7 16.4623 30.075 18.5623 25.875 18.5623C19.575 18.5623 18.7875 13.8373 15.6375 13.0498C13.5375 12.5248 11.7 13.3123 10.125 15.4123ZM2.25 24.8623C3.3 20.6623 5.925 18.5623 10.125 18.5623C16.425 18.5623 17.2125 23.2873 20.3625 24.0748C22.4625 24.5998 24.3 23.8123 25.875 21.7123C24.825 25.9123 22.2 28.0123 18 28.0123C11.7 28.0123 10.9125 23.2873 7.7625 22.4998C5.6625 21.9748 3.825 22.7623 2.25 24.8623Z" fill="#44A8B3"/>
</svg>
