<svg width="36" height="36" viewBox="0 0 36 36" fill="none" xmlns="http://www.w3.org/2000/svg">
<path fill-rule="evenodd" clip-rule="evenodd" d="M3.31201 3.31201V32.688H32.688V3.31201H3.31201ZM25.6335 17.5803V17.5807C25.9151 17.5816 26.2353 17.5961 26.4761 17.6222C27.4566 17.7282 28.2203 18.1513 28.8699 18.9481C29.1935 19.345 29.3041 19.5187 29.2805 19.593C29.2654 19.6409 29.0434 19.7999 28.3376 20.2684C27.6444 20.7287 27.421 20.8665 27.3692 20.8665C27.3166 20.8665 27.207 20.7538 27.0491 20.5373C26.7449 20.1205 26.4344 19.9302 25.9543 19.8668C25.4381 19.7984 24.975 19.9612 24.7482 20.2908C24.5544 20.5724 24.5251 21.0256 24.6792 21.3549C24.8577 21.7363 25.1808 21.9472 26.4191 22.4902C27.8473 23.1164 28.571 23.5451 29.0982 24.077C29.6658 24.6498 29.9534 25.3113 30.0417 26.2469C30.0848 26.7028 30.0321 27.2433 29.9016 27.6827C29.5816 28.7599 28.718 29.5487 27.4522 29.9199C27.1023 30.0225 26.7767 30.0838 26.4546 30.1074C25.963 30.1436 25.2592 30.1236 24.8357 30.062C23.764 29.9059 22.5543 29.2823 21.9511 28.5752C21.6549 28.2281 21.2769 27.6569 21.2769 27.5564C21.2769 27.5079 21.3009 27.4804 21.3961 27.4198C21.6785 27.2405 23.2965 26.3155 23.3279 26.3155C23.3469 26.3155 23.4314 26.4151 23.5156 26.5368C23.7065 26.8124 24.1759 27.2861 24.4145 27.4442C24.6094 27.5732 24.8587 27.6769 25.1546 27.7517C25.324 27.794 25.4138 27.8015 25.7836 27.8015C26.1614 27.8014 26.2389 27.795 26.408 27.7496C26.855 27.6293 27.2041 27.3803 27.3519 27.0762C27.4168 26.9447 27.418 26.9283 27.418 26.6096V26.2791L27.3386 26.1215C27.1461 25.7394 26.7314 25.4772 25.4202 24.9093C24.8178 24.6484 24.0802 24.2805 23.7922 24.0975C23.1349 23.6798 22.6794 23.2023 22.3805 22.6178C22.0831 22.0365 22.0388 21.8202 22.038 20.9462C22.0373 20.262 22.0362 20.2704 22.1778 19.8337C22.3063 19.4374 22.5694 18.9947 22.8598 18.6861C23.4395 18.0699 24.2864 17.6739 25.1931 17.5951C25.3091 17.5842 25.4644 17.5799 25.6334 17.5804L25.6335 17.5803ZM17.8315 17.7154H17.8318C19.578 17.7163 20.579 17.7223 20.5951 17.7324C20.6254 17.7512 20.6291 17.9031 20.6291 18.873V19.992L18.8867 19.9983L17.1442 20.0046V24.952C17.1442 27.6731 17.1387 29.9155 17.1311 29.9353C17.1188 29.9686 16.9848 29.9712 15.851 29.9712H14.5847L14.5716 29.92C14.5632 29.8919 14.557 27.6494 14.5568 24.9367L14.5564 20.0044L12.8139 19.9982L11.0715 19.9918V18.8861C11.0715 18.0092 11.0775 17.7743 11.1009 17.751C11.1248 17.7263 12.0141 17.7199 15.8458 17.7161C16.5846 17.7154 17.2494 17.715 17.8315 17.7154Z" fill="#0288D1"/>
</svg>
