<svg width="36" height="36" viewBox="0 0 36 36" fill="none" xmlns="http://www.w3.org/2000/svg">
<g clip-path="url(#clip0_153_2631)">
<path d="M25.7633 22.1634C17.1077 29.693 -0.141896 25.284 0.000880861 18.019C0.145575 10.6566 16.8698 6.29944 25.7908 13.902C20.5624 10.772 11.0531 11.2134 6.59638 14.2795L7.85473 19.7086L9.40856 14.1277H10.5911L12.1484 19.7086L13.4381 14.1277H14.7273L12.7464 21.402H11.5999L10.0094 15.6885L8.39959 21.402H7.25638L5.59739 15.0957C4.74874 15.9301 4.23199 16.9095 4.17455 18.0212C3.91063 23.1296 16.8863 26.9616 25.7633 22.1634ZM32.6858 20.087V14.6773H31.1941V21.3203H36V20.087H32.6858ZM27.5585 18.8257H29.0631C28.9762 19.8021 28.3701 20.162 27.6954 20.2372C26.3149 20.391 25.5987 19.3887 25.5922 18.0269C25.5612 17.2486 25.8233 16.3946 26.5055 15.9871C27.2958 15.515 28.5993 15.6681 28.8779 16.859H30.3063C29.8476 13.4593 24.0724 13.6486 24.1005 18.0245C24.2403 21.8919 28.2708 22.136 29.3101 20.5717L29.4622 21.3254H30.4114V17.7325H27.5585V18.8257ZM20.0022 14.7929V17.0245C20.9555 15.8422 23.3899 16.293 23.3899 18.8362C23.3568 19.8058 23.0991 20.3312 22.8262 20.7555C22.3738 21.4589 20.8459 22.035 19.9568 20.9532V21.4031H19.0562V14.7929H20.0022ZM19.9659 19.1964C19.9659 20.3121 20.627 20.708 21.1931 20.708C21.5847 20.708 21.8899 20.5439 22.1003 20.2201C22.2978 19.9162 22.4022 19.4813 22.4022 18.9623C22.3796 18.2651 22.3099 17.7712 21.8832 17.4722C21.4558 17.1527 20.7561 17.2101 20.439 17.5358C20.1433 17.8394 19.9433 18.3835 19.9659 19.1964ZM18.4712 19.3022H15.017C15.0101 20.983 16.7633 20.958 17.2849 20.2372C17.373 20.1153 17.4517 19.9797 17.4669 19.7775H18.4169C18.3339 20.1881 18.2092 20.4576 18.0128 20.7314C17.5178 21.4214 16.661 21.645 15.7422 21.4951C14.8195 21.3444 14.0326 20.5058 14.0155 19.1032C13.883 17.0632 15.799 15.7107 17.5283 16.7619C18.098 17.1083 18.4754 17.927 18.4712 19.3022ZM17.4922 18.5261C17.4756 16.8096 15.1415 16.8566 15.018 18.5261H17.4922Z" fill="#E57373"/>
</g>
<defs>
<clipPath id="clip0_153_2631">
<rect width="36" height="36" fill="white"/>
</clipPath>
</defs>
</svg>
