<svg width="24" height="24" viewBox="0 0 24 24" fill="none" xmlns="http://www.w3.org/2000/svg">
<g clip-path="url(#clip0_147_2539)">
<path d="M15.8071 23.6376C22.4387 21.4176 26.161 13.5754 22.6553 6.79228C18.4374 -1.36916 6.89098 -1.90025 1.92164 5.83862C-2.43428 12.6222 1.01788 21.4117 8.22814 23.6365C8.82715 23.7465 9.04605 23.376 9.04605 23.0599C9.04605 22.7749 9.03537 21.8299 9.02896 20.8305C5.69757 21.5544 4.99392 19.4178 4.99392 19.4178C4.44829 18.034 3.66349 17.6657 3.66349 17.6657C2.57438 16.9225 3.74571 16.9374 3.74571 16.9374C4.948 17.0207 5.58225 18.1718 5.58225 18.1718C6.65107 20.003 8.38724 19.4734 9.06847 19.1658C9.17738 18.3939 9.48703 17.8643 9.82871 17.5664C7.17 17.2642 4.37248 16.2359 4.37248 11.6457C4.37248 10.3366 4.84016 9.2699 5.60467 8.43065C5.48295 8.12634 5.06973 6.90803 5.72319 5.25941C5.72319 5.25941 6.72795 4.93802 9.01722 6.48733C10.9734 5.96077 12.9707 5.9429 15.0137 6.48947C17.2987 4.93802 18.3056 5.26155 18.3056 5.26155C18.9601 6.91123 18.548 8.12847 18.4252 8.43171C19.1929 9.2699 19.6563 10.3377 19.6563 11.6467C19.6563 16.2487 16.8545 17.262 14.1862 17.5589C14.6176 17.9305 14.9988 18.6587 14.9988 19.7755C14.9988 21.3772 14.9828 22.6681 14.9828 23.0632C14.9828 23.3824 15.2006 23.7551 15.8071 23.6376Z" fill="#292D32"/>
</g>
<defs>
<clipPath id="clip0_147_2539">
<rect width="24" height="24" fill="white"/>
</clipPath>
</defs>
</svg>
