<svg width="16" height="16" viewBox="0 0 16 16" fill="none" xmlns="http://www.w3.org/2000/svg">
<path d="M14.6668 6.00017V10.0002C14.6668 11.6668 14.3335 12.8335 13.5868 13.5868L9.3335 9.33351L14.4868 4.18018C14.6068 4.70684 14.6668 5.30684 14.6668 6.00017Z" stroke="#292D32" stroke-width="1.5" stroke-linecap="round" stroke-linejoin="round"/>
<path d="M14.4868 4.18017L4.18016 14.4868C2.17349 14.0268 1.3335 12.6402 1.3335 10.0002V6.00016C1.3335 2.66683 2.66683 1.3335 6.00016 1.3335H10.0002C12.6402 1.3335 14.0268 2.1735 14.4868 4.18017Z" stroke="#292D32" stroke-width="1.5" stroke-linecap="round" stroke-linejoin="round"/>
<path d="M13.5869 13.5868C12.8335 14.3335 11.6668 14.6668 10.0002 14.6668H6.00018C5.30685 14.6668 4.70684 14.6068 4.18018 14.4868L9.33352 9.3335L13.5869 13.5868Z" stroke="#292D32" stroke-width="1.5" stroke-linecap="round" stroke-linejoin="round"/>
<path d="M4.16018 5.31998C4.61351 3.36665 7.54685 3.36665 8.00018 5.31998C8.26018 6.46665 7.54017 7.43998 6.90684 8.03998C6.44684 8.47998 5.72019 8.47998 5.25352 8.03998C4.62019 7.43998 3.89351 6.46665 4.16018 5.31998Z" stroke="#292D32" stroke-width="1.5"/>
<path d="M6.06307 5.80013H6.06906" stroke="#292D32" stroke-width="2" stroke-linecap="round" stroke-linejoin="round"/>
</svg>
